<?xml version="1.0" encoding="utf-8"?><!-- Uploaded to: SVG Repo, www.svgrepo.com, Generator: SVG Repo Mixer Tools -->
<svg width="800px" height="800px" viewBox="0 0 400 400" fill="none" xmlns="http://www.w3.org/2000/svg">
<path d="M264.693 125.189C272.805 122.429 276.641 113.217 281.111 110.336C289.548 104.899 302.217 117.315 311.856 94.3014C314.688 87.5423 280.823 81.8984 256.407 88.0566C245.92 90.7014 239.755 99.3364 234.742 104.716" stroke="#000000" stroke-opacity="0.9" stroke-width="16" stroke-linecap="round" stroke-linejoin="round"/>
<path opacity="0.503384" d="M250.654 126.6C244.506 120.622 233.564 119.274 228.248 121.969C222.932 124.664 222.401 132.31 220.361 143.544C218.322 154.778 218.322 157.042 220.361 163.829" stroke="#000000" stroke-opacity="0.9" stroke-width="14" stroke-linecap="round" stroke-linejoin="round"/>
<path opacity="0.503384" d="M213.048 183.194C202.903 177.474 187.408 192.64 181.579 190.969C171.024 187.945 164.999 188.849 158.061 190.969C152.677 192.614 143.424 194.63 138.753 196.973C126.762 202.987 110.916 191.849 113.398 216.755C113.878 221.553 118.363 225.12 119.033 229.83C119.685 234.407 114.595 241.96 115.159 248.201C116.525 263.281 128.157 271.988 124.668 286.002C123.302 291.48 145.015 297.47 158.061 275.5C168.277 258.294 173.547 261.236 176.427 257.385C178.445 254.689 177.035 264.262 178.54 267.278C181.315 272.844 213.048 278.824 257.23 260.915C268.778 256.234 266.261 239.642 271.496 230.888C274.638 225.634 280.058 218.146 281.054 208.132C282.511 193.529 277.977 188.17 276.153 177.19C274.238 165.659 280.895 154.499 262.567 142.236" stroke="#000000" stroke-opacity="0.9" stroke-width="14" stroke-linecap="round" stroke-linejoin="round"/>
<path d="M101.774 207.016C96.0803 208.896 89.2291 212.708 87 218.38" stroke="#000000" stroke-opacity="0.9" stroke-width="16" stroke-linecap="round" stroke-linejoin="round"/>
<path d="M160.182 283.16C157.834 298.269 146.41 338.848 168.827 338.848" stroke="#000000" stroke-opacity="0.9" stroke-width="16" stroke-linecap="round" stroke-linejoin="round"/>
<path d="M128.83 291.115C131.097 303.829 115.397 338.848 138.142 338.848" stroke="#000000" stroke-opacity="0.9" stroke-width="16" stroke-linecap="round" stroke-linejoin="round"/>
<path d="M234.699 275.205C235.326 295.442 229.061 331.728 229.061 343.394" stroke="#000000" stroke-opacity="0.9" stroke-width="16" stroke-linecap="round" stroke-linejoin="round"/>
<path d="M261.873 263.84C263.969 278.772 242.392 335.51 256.754 343.394" stroke="#000000" stroke-opacity="0.9" stroke-width="16" stroke-linecap="round" stroke-linejoin="round"/>
<path d="M241.562 94.5039C244.833 90.2402 241.931 61.8675 250.274 57.1042C254.334 54.7815 251.051 92.0813 254.178 89.7014C259.128 85.93 265.425 55.5985 275.504 58.4743C276.935 58.8846 268.067 78.7175 259.2 87.7195" stroke="#000000" stroke-opacity="0.9" stroke-width="16" stroke-linecap="round" stroke-linejoin="round"/>
</svg>