<?xml version="1.0" encoding="utf-8"?><!-- Uploaded to: SVG Repo, www.svgrepo.com, Generator: SVG Repo Mixer Tools -->
<svg width="800px" height="800px" viewBox="0 0 400 400" fill="none" xmlns="http://www.w3.org/2000/svg">
<path d="M328.437 110C341.577 94.9415 314.394 81.147 311 100.522" stroke="#000000" stroke-opacity="0.9" stroke-width="16" stroke-linecap="round" stroke-linejoin="round"/>
<path d="M309 103C298.096 99.6581 279.415 98.3917 269 103" stroke="#000000" stroke-opacity="0.9" stroke-width="16" stroke-linecap="round" stroke-linejoin="round"/>
<path d="M264 101.659C257.264 92.701 244 91.8142 244 105" stroke="#000000" stroke-opacity="0.9" stroke-width="16" stroke-linecap="round" stroke-linejoin="round"/>
<path d="M329.597 112C341.369 124.241 346.732 162.01 349.349 182.924C355.243 230.026 347.153 257 295.421 257C251.605 257 231.749 249.118 225.794 225.32C219.838 201.522 216.942 153.896 232.344 133.381" stroke="#000000" stroke-opacity="0.9" stroke-width="16" stroke-linecap="round" stroke-linejoin="round"/>
<path d="M236 106.962C215.68 103.097 187.129 105.019 174.505 103.758C92.7021 95.5896 59 154.465 59 230.311C59 249.1 59 275.165 66.4864 304" stroke="#000000" stroke-opacity="0.9" stroke-width="16" stroke-linecap="round" stroke-linejoin="round"/>
<path d="M294.88 267C295.37 281.397 294.346 295.846 292 309" stroke="#000000" stroke-opacity="0.9" stroke-width="16" stroke-linecap="round" stroke-linejoin="round"/>
<path d="M227.214 282C226.223 290.087 229 298.007 229 306" stroke="#000000" stroke-opacity="0.9" stroke-width="16" stroke-linecap="round" stroke-linejoin="round"/>
<path d="M248 281.604C221.366 281.604 173.96 276.375 149.677 274.309C142.751 273.72 122.288 268.214 116.264 272.827C111.471 276.495 110.242 294.662 109 301" stroke="#000000" stroke-opacity="0.9" stroke-width="16" stroke-linecap="round" stroke-linejoin="round"/>
<path d="M59 178C55.3129 180.25 52.7557 178 49 178" stroke="#000000" stroke-opacity="0.9" stroke-width="16" stroke-linecap="round" stroke-linejoin="round"/>
<path d="M312.998 141C313.048 139.957 312.179 139.052 312 138" stroke="#000000" stroke-opacity="0.9" stroke-width="16" stroke-linecap="round" stroke-linejoin="round"/>
<path d="M260 142C260 140.968 260 139.956 260 139" stroke="#000000" stroke-opacity="0.9" stroke-width="16" stroke-linecap="round" stroke-linejoin="round"/>
<path d="M308 197C309 196 309 195 309 194" stroke="#000000" stroke-opacity="0.9" stroke-width="16" stroke-linecap="round" stroke-linejoin="round"/>
<path d="M273 197C273 195.842 272 195.158 272 194" stroke="#000000" stroke-opacity="0.9" stroke-width="16" stroke-linecap="round" stroke-linejoin="round"/>
</svg>