<?xml version="1.0" encoding="utf-8"?><!-- Uploaded to: SVG Repo, www.svgrepo.com, Generator: SVG Repo Mixer Tools -->
<svg width="800px" height="800px" viewBox="0 0 400 400" fill="none" xmlns="http://www.w3.org/2000/svg">
<path d="M117.635 180.734C111.303 169.201 116.496 45.2953 144.311 61.4501C167.194 74.7394 165.893 117.38 175.439 130.314" stroke="#000000" stroke-opacity="0.9" stroke-width="16" stroke-linecap="round" stroke-linejoin="round"/>
<path d="M220.284 126.353C276.147 -1.84037 293.891 121.393 286.659 183.303" stroke="#000000" stroke-opacity="0.9" stroke-width="16" stroke-linecap="round" stroke-linejoin="round"/>
<path d="M96 247.215C100.992 221.498 123.707 227.216 138.025 216.723C154.996 204.28 158.327 187.472 176.864 187.472C195.402 187.472 201.479 198.345 202.852 197.572C210.686 193.164 214.279 182.687 233.992 186.817C253.705 190.946 247.424 211.282 258.362 219.836C277.031 234.431 295.818 230.026 303.568 257.798" stroke="#000000" stroke-opacity="0.9" stroke-width="16" stroke-linecap="round" stroke-linejoin="round"/>
<path d="M99.8438 269.555C159.141 264.395 153.784 362.558 220.742 335.165C249.612 323.352 255.377 285.287 288.192 277.454" stroke="#000000" stroke-opacity="0.9" stroke-width="16" stroke-linecap="round" stroke-linejoin="round"/>
<path d="M169.033 225.688C172.361 228.12 176.411 229.364 180.564 230.826" stroke="#000000" stroke-opacity="0.9" stroke-width="16" stroke-linecap="round" stroke-linejoin="round"/>
<path d="M220.284 230.826C225.345 229.916 229.057 228.435 233.097 225.688" stroke="#000000" stroke-opacity="0.9" stroke-width="16" stroke-linecap="round" stroke-linejoin="round"/>
<path d="M202.521 287.415C234.561 277.784 195.139 323.612 198.737 290.628" stroke="#000000" stroke-opacity="0.9" stroke-width="16" stroke-linecap="round" stroke-linejoin="round"/>
</svg>